<svg width="106" height="146" viewBox="0 0 106 146" fill="none" xmlns="http://www.w3.org/2000/svg">
<path d="M24.5914 40.6974C31.893 40.6974 37.8122 34.8653 37.8122 27.671C37.8122 20.4767 31.893 14.6445 24.5914 14.6445C17.2898 14.6445 11.3706 20.4767 11.3706 27.671C11.3706 34.8653 17.2898 40.6974 24.5914 40.6974Z" fill="#A2D729"/>
<path d="M11.7901 57.6245C15.9598 57.6245 19.34 54.2939 19.34 50.1855C19.34 46.0771 15.9598 42.7465 11.7901 42.7465C7.62037 42.7465 4.24015 46.0771 4.24015 50.1855C4.24015 54.2939 7.62037 57.6245 11.7901 57.6245Z" fill="#A2D729"/>
<path d="M88.3465 30.7786C95.6481 30.7786 101.567 24.9465 101.567 17.7522C101.567 10.5579 95.6481 4.72571 88.3465 4.72571C81.0448 4.72571 75.1257 10.5579 75.1257 17.7522C75.1257 24.9465 81.0448 30.7786 88.3465 30.7786Z" fill="#A2D729"/>
<path d="M57.6264 21.002L16.9604 90.178H97.5204L57.6264 21.002Z" fill="#F15025"/>
<path d="M50.8795 90.1784H59.3595L51.0048 45.4175L50.8795 90.1784Z" fill="#B74C49"/>
<path d="M58.6208 36.7368C58.3722 36.7376 58.1432 36.5738 58.0238 36.3098L55.3102 30.4302C55.1751 30.1738 55.1682 29.848 55.2921 29.5835C55.4161 29.319 55.6507 29.159 55.9018 29.1678C56.153 29.1766 56.3795 29.3527 56.4907 29.6255L59.2043 35.505C59.3194 35.7598 59.3148 36.0692 59.1922 36.3189C59.0696 36.5685 58.8472 36.7211 58.6073 36.7204L58.6208 36.7368Z" fill="#3C3C3C"/>
<path d="M84.0615 81.9628C83.8129 81.9636 83.5838 81.7927 83.4645 81.5173L80.7644 75.4007C80.6293 75.1332 80.6224 74.7933 80.7463 74.5174C80.8703 74.2414 81.1049 74.0746 81.356 74.0837C81.6072 74.0929 81.8337 74.2766 81.9449 74.5612L84.6585 80.6949C84.7736 80.9607 84.769 81.2835 84.6464 81.5439C84.5238 81.8044 84.3014 81.9636 84.0615 81.9628Z" fill="#3C3C3C"/>
<path d="M1.65625 100.606L104.344 100.796C105.258 100.796 106 100.086 106 99.2096C106 98.3335 105.258 97.6233 104.344 97.6233L1.65625 97.4329C0.741528 97.4329 0 98.1432 0 99.0193C0 99.8954 0.741528 100.606 1.65625 100.606Z" fill="#3C3C3C"/>
<path d="M9.10943 86.5183C9.10943 87.3944 9.85096 88.1046 10.7657 88.1046C11.244 88.1001 11.697 87.8976 12.0079 87.5494C12.3188 87.8976 12.7717 88.1001 13.2501 88.1046H92.7501C93.343 88.1069 93.8919 87.8054 94.1893 87.3142C94.4868 86.8229 94.4874 86.2169 94.191 85.7251L87.9966 75.3185V33.6761C95.7475 32.8347 101.464 26.3438 101.024 18.8843C100.585 11.4248 94.1409 5.59171 86.3404 5.59171C78.5399 5.59171 72.0962 11.4248 71.6563 18.8843C71.2164 26.3438 76.9332 32.8347 84.6841 33.6761V69.7662L55.236 20.3664L65.6041 3.23359C65.9305 2.74183 65.9491 2.11827 65.6526 1.60944C65.3562 1.10061 64.7923 0.788421 64.184 0.796161C63.5756 0.804194 63.0208 1.13088 62.7388 1.64721L53.3313 17.1778L44.0894 1.64721C43.6321 0.884979 42.6162 0.622189 41.8204 1.06025C41.0246 1.49832 40.7502 2.47135 41.2076 3.23359L51.3438 20.3506L36.6694 44.7014C36.3431 45.1932 36.3244 45.8167 36.6209 46.3256C36.9174 46.8344 37.4813 47.1466 38.0896 47.1387C38.6979 47.1308 39.2527 46.8041 39.5347 46.2878L53.3147 23.5392L89.9013 84.9319H54.6563V41.7032C54.6563 40.827 53.9148 40.1168 53.0001 40.1168C52.0853 40.1168 51.3438 40.827 51.3438 41.7032V84.9319H16.1319L35.7916 52.4588C36.118 51.967 36.1366 51.3435 35.8401 50.8346C35.5437 50.3258 34.9798 50.0136 34.3715 50.0215C33.7631 50.0294 33.2083 50.3561 32.9263 50.8724L25.0426 63.8807V43.2578C32.7934 42.4164 38.5103 35.9255 38.0704 28.466C37.6305 21.0065 31.1868 15.1734 23.3863 15.1734C15.5858 15.1734 9.14213 21.0065 8.70222 28.466C8.2623 35.9255 13.9792 42.4164 21.7301 43.2578V68.6715C21.7358 68.8395 21.7693 69.0055 21.8294 69.1633L12.4219 84.7257V59.3437C17.0522 58.5236 20.2669 54.4588 19.837 49.9675C19.4072 45.4763 15.4744 42.039 10.7657 42.039C6.05693 42.039 2.12421 45.4763 1.69435 49.9675C1.26448 54.4588 4.47917 58.5236 9.10943 59.3437V86.5183ZM74.9453 19.7319C74.9304 13.9069 79.6939 9.09721 85.7678 8.80455C91.8417 8.51188 97.0851 12.8394 97.6806 18.6364C98.276 24.4335 94.0136 29.6567 87.9966 30.5034V20.2871C87.9966 19.411 87.2551 18.7007 86.3404 18.7007C85.4257 18.7007 84.6841 19.411 84.6841 20.2871V30.4716C79.1011 29.6861 74.9593 25.105 74.9453 19.7002V19.7319ZM12.0078 29.2501C11.9929 23.4251 16.7564 18.6155 22.8303 18.3228C28.9042 18.0301 34.1476 22.3576 34.7431 28.1547C35.3385 33.9517 31.0761 39.1749 25.0591 40.0216V29.8054C25.0591 28.9292 24.3176 28.219 23.4029 28.219C22.4881 28.219 21.7466 28.9292 21.7466 29.8054V39.9899C16.1636 39.2043 12.0218 34.6232 12.0078 29.2184V29.2501ZM10.7657 45.2724C13.6486 45.2554 16.104 47.2756 16.5211 50.008C16.9381 52.7403 15.1894 55.3492 12.4219 56.1233V51.2214C12.4219 50.3453 11.6804 49.6351 10.7657 49.6351C9.85096 49.6351 9.10943 50.3453 9.10943 51.2214V56.1233C6.34202 55.3492 4.59324 52.7403 5.0103 50.008C5.42736 47.2756 7.88273 45.2554 10.7657 45.2724Z" fill="#3C3C3C"/>
<path d="M9.523 91.2791C8.60828 91.2791 7.86675 91.9893 7.86675 92.8654C7.86675 93.7416 8.60828 94.4518 9.523 94.4518H26.4996C27.4143 94.4518 28.1558 93.7416 28.1558 92.8654C28.1558 91.9893 27.4143 91.2791 26.4996 91.2791H9.523Z" fill="#3C3C3C"/>
<path d="M82.3989 91.2791C81.4842 91.2791 80.7426 91.9893 80.7426 92.8654C80.7426 93.7416 81.4842 94.4518 82.3989 94.4518H99.3754C100.29 94.4518 101.032 93.7416 101.032 92.8654C101.032 91.9893 100.29 91.2791 99.3754 91.2791H82.3989Z" fill="#3C3C3C"/>
<path d="M45.9601 91.2791C45.0454 91.2791 44.3039 91.9893 44.3039 92.8654C44.3039 93.7416 45.0454 94.4518 45.9601 94.4518H72.8742C73.7889 94.4518 74.5304 93.7416 74.5304 92.8654C74.5304 91.9893 73.7889 91.2791 72.8742 91.2791H45.9601Z" fill="#3C3C3C"/>
<path d="M11.236 125.584C10.636 125.584 10.06 125.68 9.508 125.872C8.98 126.064 8.512 126.352 8.104 126.736C7.72 127.096 7.408 127.552 7.168 128.104C6.928 128.656 6.808 129.304 6.808 130.048C6.808 131.536 7.228 132.652 8.068 133.396C8.932 134.14 9.976 134.512 11.2 134.512C11.92 134.512 12.544 134.428 13.072 134.26C13.6 134.092 14.068 133.912 14.476 133.72C14.956 134.056 15.316 134.428 15.556 134.836C15.796 135.22 15.916 135.688 15.916 136.24C15.916 137.224 15.448 137.992 14.512 138.544C13.576 139.072 12.28 139.336 10.624 139.336C9.112 139.336 7.744 139.12 6.52 138.688C5.296 138.232 4.24 137.608 3.352 136.816C2.488 136 1.816 135.028 1.336 133.9C0.856 132.772 0.616 131.524 0.616 130.156C0.616 128.572 0.868 127.192 1.372 126.016C1.9 124.816 2.608 123.832 3.496 123.064C4.384 122.296 5.404 121.72 6.556 121.336C7.732 120.952 8.968 120.76 10.264 120.76C11.992 120.76 13.324 121.072 14.26 121.696C15.196 122.32 15.664 123.124 15.664 124.108C15.664 124.564 15.556 124.996 15.34 125.404C15.124 125.788 14.872 126.124 14.584 126.412C14.176 126.22 13.684 126.04 13.108 125.872C12.532 125.68 11.908 125.584 11.236 125.584Z" fill="#3C3C3C"/>
<path d="M26.4733 134.908C26.8813 134.908 27.3253 134.872 27.8053 134.8C28.3093 134.704 28.6813 134.584 28.9213 134.44V131.56L26.3293 131.776C25.6573 131.824 25.1053 131.968 24.6733 132.208C24.2413 132.448 24.0253 132.808 24.0253 133.288C24.0253 133.768 24.2053 134.164 24.5653 134.476C24.9493 134.764 25.5853 134.908 26.4733 134.908ZM26.1853 120.76C27.4813 120.76 28.6573 120.892 29.7133 121.156C30.7933 121.42 31.7053 121.828 32.4493 122.38C33.2173 122.908 33.8053 123.592 34.2133 124.432C34.6213 125.248 34.8253 126.22 34.8253 127.348V135.412C34.8253 136.036 34.6453 136.552 34.2853 136.96C33.9493 137.344 33.5413 137.68 33.0613 137.968C31.5013 138.904 29.3053 139.372 26.4733 139.372C25.2013 139.372 24.0493 139.252 23.0173 139.012C22.0093 138.772 21.1333 138.412 20.3893 137.932C19.6693 137.452 19.1053 136.84 18.6973 136.096C18.3133 135.352 18.1213 134.488 18.1213 133.504C18.1213 131.848 18.6133 130.576 19.5973 129.688C20.5813 128.8 22.1053 128.248 24.1693 128.032L28.8853 127.528V127.276C28.8853 126.58 28.5733 126.088 27.9493 125.8C27.3493 125.488 26.4733 125.332 25.3213 125.332C24.4093 125.332 23.5213 125.428 22.6573 125.62C21.7933 125.812 21.0133 126.052 20.3173 126.34C20.0053 126.124 19.7413 125.8 19.5253 125.368C19.3093 124.912 19.2013 124.444 19.2013 123.964C19.2013 123.34 19.3453 122.848 19.6333 122.488C19.9453 122.104 20.4133 121.78 21.0373 121.516C21.7333 121.252 22.5493 121.06 23.4853 120.94C24.4453 120.82 25.3453 120.76 26.1853 120.76Z" fill="#3C3C3C"/>
<path d="M46.9553 120.76C47.9393 120.76 48.8993 120.904 49.8353 121.192C50.7953 121.456 51.6233 121.864 52.3193 122.416C53.0393 121.936 53.8433 121.54 54.7313 121.228C55.6433 120.916 56.7353 120.76 58.0073 120.76C58.9193 120.76 59.8073 120.88 60.6713 121.12C61.5593 121.36 62.3393 121.744 63.0113 122.272C63.7073 122.776 64.2593 123.46 64.6673 124.324C65.0753 125.164 65.2793 126.196 65.2793 127.42V138.76C65.0393 138.832 64.6553 138.904 64.1273 138.976C63.6233 139.048 63.0953 139.084 62.5433 139.084C62.0153 139.084 61.5353 139.048 61.1033 138.976C60.6953 138.904 60.3473 138.76 60.0593 138.544C59.7713 138.328 59.5433 138.04 59.3753 137.68C59.2313 137.296 59.1593 136.804 59.1593 136.204V127.6C59.1593 126.88 58.9553 126.364 58.5473 126.052C58.1393 125.716 57.5873 125.548 56.8913 125.548C56.5553 125.548 56.1953 125.632 55.8113 125.8C55.4273 125.944 55.1393 126.1 54.9473 126.268C54.9713 126.364 54.9833 126.46 54.9833 126.556C54.9833 126.628 54.9833 126.7 54.9833 126.772V138.76C54.7193 138.832 54.3233 138.904 53.7953 138.976C53.2913 139.048 52.7753 139.084 52.2473 139.084C51.7193 139.084 51.2393 139.048 50.8073 138.976C50.3993 138.904 50.0513 138.76 49.7633 138.544C49.4753 138.328 49.2473 138.04 49.0793 137.68C48.9353 137.296 48.8633 136.804 48.8633 136.204V127.6C48.8633 126.88 48.6353 126.364 48.1793 126.052C47.7473 125.716 47.2193 125.548 46.5953 125.548C46.1633 125.548 45.7913 125.62 45.4793 125.764C45.1673 125.884 44.9033 126.004 44.6873 126.124V138.76C44.4473 138.832 44.0633 138.904 43.5353 138.976C43.0313 139.048 42.5033 139.084 41.9513 139.084C41.4233 139.084 40.9433 139.048 40.5113 138.976C40.1033 138.904 39.7553 138.76 39.4673 138.544C39.1793 138.328 38.9513 138.04 38.7833 137.68C38.6393 137.296 38.5673 136.804 38.5673 136.204V125.332C38.5673 124.684 38.6993 124.168 38.9633 123.784C39.2513 123.4 39.6353 123.04 40.1153 122.704C40.9313 122.128 41.9393 121.66 43.1393 121.3C44.3633 120.94 45.6353 120.76 46.9553 120.76Z" fill="#3C3C3C"/>
<path d="M77.0406 120.76C78.4806 120.76 79.8126 120.952 81.0366 121.336C82.2846 121.696 83.3526 122.26 84.2406 123.028C85.1286 123.796 85.8246 124.768 86.3286 125.944C86.8326 127.096 87.0846 128.476 87.0846 130.084C87.0846 131.62 86.8686 132.964 86.4366 134.116C86.0046 135.268 85.3926 136.24 84.6006 137.032C83.8086 137.8 82.8486 138.376 81.7206 138.76C80.6166 139.144 79.3806 139.336 78.0126 139.336C76.9806 139.336 76.0206 139.18 75.1326 138.868V144.844C74.8926 144.916 74.5086 144.988 73.9806 145.06C73.4526 145.156 72.9126 145.204 72.3606 145.204C71.8326 145.204 71.3526 145.168 70.9206 145.096C70.5126 145.024 70.1646 144.88 69.8766 144.664C69.5886 144.448 69.3726 144.148 69.2286 143.764C69.0846 143.404 69.0126 142.924 69.0126 142.324V125.044C69.0126 124.396 69.1446 123.868 69.4086 123.46C69.6966 123.052 70.0806 122.68 70.5606 122.344C71.3046 121.864 72.2286 121.48 73.3326 121.192C74.4366 120.904 75.6726 120.76 77.0406 120.76ZM77.1126 134.512C79.5846 134.512 80.8206 133.036 80.8206 130.084C80.8206 128.548 80.5086 127.408 79.8846 126.664C79.2846 125.92 78.4086 125.548 77.2566 125.548C76.8006 125.548 76.3926 125.608 76.0326 125.728C75.6726 125.824 75.3606 125.944 75.0966 126.088V134.008C75.3846 134.152 75.6966 134.272 76.0326 134.368C76.3686 134.464 76.7286 134.512 77.1126 134.512Z" fill="#3C3C3C"/>
<path d="M104.831 133.576C104.831 135.4 104.147 136.828 102.779 137.86C101.411 138.892 99.3952 139.408 96.7312 139.408C95.7232 139.408 94.7872 139.336 93.9232 139.192C93.0592 139.048 92.3152 138.832 91.6912 138.544C91.0912 138.232 90.6112 137.848 90.2512 137.392C89.9152 136.936 89.7472 136.396 89.7472 135.772C89.7472 135.196 89.8672 134.716 90.1072 134.332C90.3472 133.924 90.6352 133.588 90.9712 133.324C91.6672 133.708 92.4592 134.056 93.3472 134.368C94.2592 134.656 95.3032 134.8 96.4792 134.8C97.2232 134.8 97.7872 134.692 98.1712 134.476C98.5792 134.26 98.7832 133.972 98.7832 133.612C98.7832 133.276 98.6392 133.012 98.3512 132.82C98.0632 132.628 97.5832 132.472 96.9112 132.352L95.8312 132.136C93.7432 131.728 92.1832 131.092 91.1512 130.228C90.1432 129.34 89.6392 128.08 89.6392 126.448C89.6392 125.56 89.8312 124.756 90.2152 124.036C90.5992 123.316 91.1392 122.716 91.8352 122.236C92.5312 121.756 93.3592 121.384 94.3192 121.12C95.3032 120.856 96.3832 120.724 97.5592 120.724C98.4472 120.724 99.2752 120.796 100.043 120.94C100.835 121.06 101.519 121.252 102.095 121.516C102.671 121.78 103.127 122.128 103.463 122.56C103.799 122.968 103.967 123.46 103.967 124.036C103.967 124.588 103.859 125.068 103.643 125.476C103.451 125.86 103.199 126.184 102.887 126.448C102.695 126.328 102.407 126.208 102.023 126.088C101.639 125.944 101.219 125.824 100.763 125.728C100.307 125.608 99.8392 125.512 99.3592 125.44C98.9032 125.368 98.4832 125.332 98.0992 125.332C97.3072 125.332 96.6952 125.428 96.2632 125.62C95.8312 125.788 95.6152 126.064 95.6152 126.448C95.6152 126.712 95.7352 126.928 95.9752 127.096C96.2152 127.264 96.6712 127.42 97.3432 127.564L98.4592 127.816C100.763 128.344 102.395 129.076 103.355 130.012C104.339 130.924 104.831 132.112 104.831 133.576Z" fill="#3C3C3C"/>
</svg>
